<?xml version="1.0" encoding="UTF-8" standalone="no"?>
<!DOCTYPE svg PUBLIC "-//W3C//DTD SVG 1.1//EN" "http://www.w3.org/Graphics/SVG/1.1/DTD/svg11.dtd">
<svg width="100%" height="100%" viewBox="0 0 141 140" version="1.1" xmlns="http://www.w3.org/2000/svg" xmlns:xlink="http://www.w3.org/1999/xlink" xml:space="preserve" xmlns:serif="http://www.serif.com/" style="fill-rule:evenodd;clip-rule:evenodd;stroke-linejoin:round;stroke-miterlimit:2;">
    <g transform="matrix(1,0,0,1,-129.18,-418.16)">
        <path d="M208.03,418.3C195.776,418.582 183.222,417.378 171.997,422.805C160.874,432.891 153.956,445.5 148.253,458.838L141.697,465.386C133.88,464.643 129.447,470.126 129.327,475.626C129.265,478.432 130.326,481.243 132.634,483.233C133.538,484.014 134.635,484.668 135.93,485.147C137.791,486.028 139.151,485.775 140.998,485.215C141.729,484.992 142.56,484.732 143.354,484.471C145.632,484.012 146.519,483.061 147.528,481.094C150.581,474.956 146.892,473.916 147.429,470.706C145.546,465.282 156.474,457.647 158.079,459.653C160.78,459.344 163.385,458.751 165.012,455.219C164.242,458.041 163.659,460.71 163.534,462.483C159.775,463.261 156.201,464.371 156.44,472.345C153.157,475.344 150.649,478.653 152.759,483.81C151.157,494.603 141.864,494.668 136.377,500.604C135.576,504.47 130.467,509.943 137.604,510.833C134.706,525.448 142.255,529.004 152.518,527.712C155.438,527.344 158.578,526.584 161.76,525.575C162.715,521.617 177.05,519.165 178.142,521.894C179.445,523.512 180.918,524.972 182.509,526.33C186.618,529.838 191.514,532.661 196.297,535.74C202.594,539.793 208.693,544.289 212.537,551.371L221.95,555.061C228.19,554.397 235.804,551.445 239.971,554.237C247.128,555.559 253.517,559.174 262.076,556.288C269.497,556.721 270.441,551.211 268.633,543.184C270.46,537.796 268.976,533.067 266.993,528.441C268.752,524.371 264.007,521.926 259.792,519.35L257.454,517.731L255.344,513.729L251.436,508.79C250.709,504.818 252.371,504.035 253.89,503.057L251.436,500.603L255.529,497.325C257.21,494.061 254.78,489.61 251.436,488.315C254.688,488.769 257.947,489.234 260.446,486.675C260.715,485.171 262.205,484.586 259.622,480.943C256.326,478.544 253.362,475.152 250.611,471.118L254.382,463.504C254.929,461.068 254.195,459.923 253.403,458.547C255.598,458.583 255.712,457.161 256.06,456.376C254.956,447.511 248.978,442.211 243.572,435.496C242.038,434.548 241.488,435.076 241.028,435.738L233.012,427.713C225.846,424.573 224.988,421.438 208.032,418.299L208.03,418.3Z" style="fill:white;"/>
    </g>
</svg>
