<?xml version="1.0" encoding="UTF-8" standalone="no"?>
<!DOCTYPE svg PUBLIC "-//W3C//DTD SVG 1.1//EN" "http://www.w3.org/Graphics/SVG/1.1/DTD/svg11.dtd">
<svg width="100%" height="100%" viewBox="0 0 381 320" version="1.1" xmlns="http://www.w3.org/2000/svg" xmlns:xlink="http://www.w3.org/1999/xlink" xml:space="preserve" xmlns:serif="http://www.serif.com/" style="fill-rule:evenodd;clip-rule:evenodd;stroke-linejoin:round;stroke-miterlimit:2;">
    <g transform="matrix(1,0,0,1,0.5,0.5)">
        <g transform="matrix(1,0,0,1,-199.999,-216.88)">
            <path d="M300,292.38L279.344,300.63C292.326,300.487 305.318,300.501 318.313,300.536C312.151,298.148 306.1,295.466 300.251,292.38L300,292.38ZM364.688,292.38C366.449,293.339 368.213,294.302 369.969,295.255C369.237,294.293 368.488,293.337 367.75,292.38L364.688,292.38ZM478.688,292.38C475.041,295.415 471.104,298.134 467,300.568L519.531,300.568C528.168,302.024 538.227,297.477 545.687,303.568L545.687,506.128L579.999,492.378L579.999,292.378L478.689,292.378L478.688,292.38ZM226.468,321.786L199.999,332.38L199.999,532.38L313.689,532.38L313.689,363.47C314.76,352.548 312.021,341.353 314.658,330.626C318.683,325.169 326.78,325.859 332.314,322.47C297.035,322.285 261.725,323.391 226.474,321.782L226.468,321.786ZM408.658,322.567C393.741,325.1 380.162,332.994 365.877,337.879L365.877,532.379L479.997,532.379L479.997,532.473L514.403,518.692L514.403,322.572L408.653,322.572L408.658,322.567Z" style="fill:white;fill-rule:nonzero;stroke:white;stroke-width:1px;"/>
        </g>
        <g transform="matrix(1,0,0,1,-199.999,-216.88)">
            <path d="M329.88,216.88C325.978,216.869 321.3,217.071 315.349,217.224C303.923,217.517 291.255,223.63 280.005,242.38C259.257,276.96 319.8,297.191 359.13,306.38L259.755,306.38L236.005,316.38L363.915,316.38L320.884,333.286L320.009,333.286L320.009,535.226L360.197,535.226L360.197,333.386L360.634,333.386L403.915,316.386L520.885,316.386L520.729,316.448L520.729,518.258L540.01,510.227L540.01,308.417L539.854,308.48L539.854,306.386L437.734,306.386C441.957,305.273 446.109,303.948 450.015,302.386C513.453,275.198 504.853,219.32 456.327,220.198C451.308,220.289 445.853,220.985 440.015,222.385C399.197,238.712 391.735,288.325 390.359,306.01L389.391,306.385L388.516,306.385L380.016,272.385C372.348,241.706 366.179,233.18 350.016,222.385C343.339,217.926 338.474,216.91 329.891,216.885L329.88,216.88ZM299.505,225.474C324.587,224.098 371.601,286.683 385.755,306.38L378.005,306.38C347.688,290.817 271.505,248.815 291.38,229.068C293.691,226.771 296.428,225.643 299.505,225.474ZM475.815,228.349C478.192,228.223 480.356,228.68 482.253,229.818C498.717,239.697 450.449,274.104 417.659,295.256L396.347,303.631C412.104,282.368 453.424,229.536 475.816,228.35L475.815,228.349Z" style="fill:white;fill-rule:nonzero;stroke:white;stroke-width:1px;"/>
        </g>
    </g>
</svg>
